<?xml version="1.0" encoding="UTF-8" standalone="no" ?>
<!DOCTYPE svg PUBLIC "-//W3C//DTD SVG 1.1//EN" "http://www.w3.org/Graphics/SVG/1.1/DTD/svg11.dtd">
<svg xmlns="http://www.w3.org/2000/svg" xmlns:xlink="http://www.w3.org/1999/xlink" version="1.1" width="640" height="640" viewBox="0 0 640 640" xml:space="preserve">
<desc>Created with Fabric.js 4.6.0</desc>
<defs>
</defs>
<g transform="matrix(1.36 0 0 2.18 320 320)" id="HKAU-2Pgdge1Kr_jiWxjL"  >
<path style="stroke: rgb(116,171,88); stroke-width: 0; stroke-dasharray: none; stroke-linecap: butt; stroke-dashoffset: 0; stroke-linejoin: miter; stroke-miterlimit: 4; fill: rgb(247,47,58); fill-rule: nonzero; opacity: 1;" vector-effect="non-scaling-stroke"  transform=" translate(0, 0)" d="M 0 -124.17094 C 68.54236 -124.17094 124.17094 -68.54236 124.17094 0 C 124.17094 68.54236 68.54236 124.17094 0 124.17094 C -68.54236 124.17094 -124.17094 68.54236 -124.17094 0 C -124.17094 -68.54236 -68.54236 -124.17094 0 -124.17094 z" stroke-linecap="round" />
</g>
<g transform="matrix(0 -1.37 2.18 0 320 320)" id="5TGCUj6vqTGZP17dA7c05"  >
<path style="stroke: rgb(116,171,88); stroke-width: 0; stroke-dasharray: none; stroke-linecap: butt; stroke-dashoffset: 0; stroke-linejoin: miter; stroke-miterlimit: 4; fill: rgb(247,47,58); fill-rule: nonzero; opacity: 1;" vector-effect="non-scaling-stroke"  transform=" translate(0, 0)" d="M 0 -124.17094 C 68.54236 -124.17094 124.17094 -68.54236 124.17094 0 C 124.17094 68.54236 68.54236 124.17094 0 124.17094 C -68.54236 124.17094 -124.17094 68.54236 -124.17094 0 C -124.17094 -68.54236 -68.54236 -124.17094 0 -124.17094 z" stroke-linecap="round" />
</g>
<g transform="matrix(0.97 -0.97 1.54 1.54 320 320)" id="0vbVoz-zr8VGKvUzIBpk8"  >
<path style="stroke: rgb(116,171,88); stroke-width: 0; stroke-dasharray: none; stroke-linecap: butt; stroke-dashoffset: 0; stroke-linejoin: miter; stroke-miterlimit: 4; fill: rgb(247,47,58); fill-rule: nonzero; opacity: 1;" vector-effect="non-scaling-stroke"  transform=" translate(0, 0)" d="M 0 -124.17094 C 68.54236 -124.17094 124.17094 -68.54236 124.17094 0 C 124.17094 68.54236 68.54236 124.17094 0 124.17094 C -68.54236 124.17094 -124.17094 68.54236 -124.17094 0 C -124.17094 -68.54236 -68.54236 -124.17094 0 -124.17094 z" stroke-linecap="round" />
</g>
<g transform="matrix(-0.97 -0.97 1.54 -1.54 320 320)" id="ufs_SZmNdx_NUDwi_QH_d"  >
<path style="stroke: rgb(116,171,88); stroke-width: 0; stroke-dasharray: none; stroke-linecap: butt; stroke-dashoffset: 0; stroke-linejoin: miter; stroke-miterlimit: 4; fill: rgb(252,134,29); fill-rule: nonzero; opacity: 1;" vector-effect="non-scaling-stroke"  transform=" translate(0, 0)" d="M 0 -124.17094 C 68.54236 -124.17094 124.17094 -68.54236 124.17094 0 C 124.17094 68.54236 68.54236 124.17094 0 124.17094 C -68.54236 124.17094 -124.17094 68.54236 -124.17094 0 C -124.17094 -68.54236 -68.54236 -124.17094 0 -124.17094 z" stroke-linecap="round" />
</g>
<g transform="matrix(0.47 -1.29 2.05 0.74 320 320)" id="NFQri19s_dCd2hijB8J-I"  >
<path style="stroke: rgb(116,171,88); stroke-width: 0; stroke-dasharray: none; stroke-linecap: butt; stroke-dashoffset: 0; stroke-linejoin: miter; stroke-miterlimit: 4; fill: rgb(252,134,29); fill-rule: nonzero; opacity: 1;" vector-effect="non-scaling-stroke"  transform=" translate(0, 0)" d="M 0 -124.17094 C 68.54236 -124.17094 124.17094 -68.54236 124.17094 0 C 124.17094 68.54236 68.54236 124.17094 0 124.17094 C -68.54236 124.17094 -124.17094 68.54236 -124.17094 0 C -124.17094 -68.54236 -68.54236 -124.17094 0 -124.17094 z" stroke-linecap="round" />
</g>
<g transform="matrix(-1.29 -0.47 0.74 -2.05 320 320)" id="DdrFjq6Tqd7XHCIDtSyF2"  >
<path style="stroke: rgb(116,171,88); stroke-width: 0; stroke-dasharray: none; stroke-linecap: butt; stroke-dashoffset: 0; stroke-linejoin: miter; stroke-miterlimit: 4; fill: rgb(247,47,58); fill-rule: nonzero; opacity: 1;" vector-effect="non-scaling-stroke"  transform=" translate(0, 0)" d="M 0 -124.17094 C 68.54236 -124.17094 124.17094 -68.54236 124.17094 0 C 124.17094 68.54236 68.54236 124.17094 0 124.17094 C -68.54236 124.17094 -124.17094 68.54236 -124.17094 0 C -124.17094 -68.54236 -68.54236 -124.17094 0 -124.17094 z" stroke-linecap="round" />
</g>
</svg>